<?xml version="1.0"?><svg version="1.2" baseProfile="tiny-ps" viewBox="0 0 256 256" xmlns="http://www.w3.org/2000/svg" xmlns:xlink="http://www.w3.org/1999/xlink"><title>Intellium</title><g><g fill="#eff1f5" transform="matrix(.1 0 0 -.1 0 256)"><path d="M691 2020c-6-30-19-113-27-185l-16-130 6-110 5-110 16-60c8-33 31-92 50-131l35-71 68-64 67-64 70-34c89-43 114-51 320-112 221-65 293-93 364-140 101-67 165-155 192-264l12-47 7 13c4 8 16 66 26 129l18 115-1 160v160l-25 82-24 81-35 57-34 57-62 57-62 57-74 36c-68 33-145 60-437 148-58 17-136 47-175 65l-70 34-55 49-56 50-29 53c-16 30-37 81-46 114l-16 60-12-55z"/></g></g></svg>